# xmcd
#
# Track frame offsets:
#	150
#	1748
#	18338
#	20568
#	39604
#	51515
#	58084
#	71760
#	85592
#	97068
#	98190
#	105283
#	112796
#	131420
#	133574
#	145476
#
# Disc length: 2274 seconds
#
# Revision: 0
# Processed by: cddbd v1.4PL0 Copyright (c) Steve Scherf et al.
# Submitted via: audiograbber 1.80
#
DISCID=d108e010
DTITLE=John Doe - Me Unit
DYEAR=1900
DGENRE=
TTITLE0=Intro
TTITLE1=New York feat Busta Rhymes
TTITLE2=The Skit
TTITLE3=Murder
TTITLE4=Me Unit Freestyle
TTITLE5=Freestyle
TTITLE6=Please
TTITLE7=Superman
TTITLE8=Problems
TTITLE9=Contacts
TTITLE10=Freestyles
TTITLE11=DJ How You Doin
TTITLE12=Blow That Shit Out
TTITLE13=Skit
TTITLE14=I Know Niggas
TTITLE15=5 Minutes of Death
EXTD=mysto
EXTT0=
EXTT1=
EXTT2=
EXTT3=
EXTT4=
EXTT5=
EXTT6=
EXTT7=
EXTT8=
EXTT9=
EXTT10=
EXTT11=
EXTT12=
EXTT13=
EXTT14=
EXTT15=
PLAYORDER=
